<?xml version="1.0" encoding="utf-8"?>
<!-- Generator: Adobe Illustrator 24.0.3, SVG Export Plug-In . SVG Version: 6.00 Build 0)  -->
<svg version="1.1" id="Layer_1" xmlns="http://www.w3.org/2000/svg" xmlns:xlink="http://www.w3.org/1999/xlink" x="0px" y="0px"
	 viewBox="0 0 64 64" style="enable-background:new 0 0 64 64;" xml:space="preserve">
<style type="text/css">
	.st0{fill:#525F70;}
	.st1{fill:#525F70;stroke:#2F333A;stroke-width:3;}
	.st2{fill:#C1C4C7;stroke:#C1C4C7;stroke-width:1.2;}
</style>
<path class="st0" d="M13.3,7H51c3.5,0,6.3,2.8,6.3,6.3v37.6c0,3.5-2.8,6.3-6.3,6.3H13.3c-3.5,0-6.3-2.8-6.3-6.3V13.3
	C7,9.8,9.9,7,13.3,7z"/>
<path class="st1" d="M12,6.9h40.3c2.8,0,5,2.3,5,5v40.3c0,2.8-2.3,5-5,5H12c-2.8,0-5-2.3-5-5V12C7,9.2,9.2,6.9,12,6.9z"/>
<g id="Group_1878" transform="translate(11.091 9.373) rotate(180)">
	<path id="Path_1169" class="st2" d="M-11.1-27.2l-9.6,9l-9.6-9c-0.3-0.3-0.7-0.3-0.9,0c-0.3,0.3-0.3,0.7,0,0.9l10.1,9.4
		c0.3,0.2,0.7,0.2,0.9,0l10.1-9.4c0.3-0.3,0.3-0.7,0-0.9c0,0,0,0,0,0C-10.4-27.4-10.8-27.4-11.1-27.2z"/>
</g>
</svg>
