<?xml version="1.0" encoding="utf-8"?>
<!-- Generator: Adobe Illustrator 24.0.3, SVG Export Plug-In . SVG Version: 6.00 Build 0)  -->
<svg version="1.1" id="Layer_1" xmlns="http://www.w3.org/2000/svg" xmlns:xlink="http://www.w3.org/1999/xlink" x="0px" y="0px"
	 viewBox="0 0 32 32" style="enable-background:new 0 0 32 32;" xml:space="preserve">
<style type="text/css">
	.st0{fill:#FFFFFF;}
</style>
<g id="zoom" transform="translate(-11 -11.4)">
	<g id="Group_1032" transform="translate(11 11.4)">
		<g id="Group_1031" transform="translate(0)">
			<path id="Path_884" class="st0" d="M17.4,13.6h-2.1v-2.1c0-0.5-0.4-0.9-0.9-0.9c-0.5,0-0.9,0.4-0.9,0.9v2.1h-2.1
				c-0.5,0-0.9,0.4-0.9,0.9c0,0.5,0.4,0.9,0.9,0.9h2.1v2.1c0,0.5,0.4,0.9,0.9,0.9c0.5,0,0.9-0.4,0.9-0.9v-2.1h2.1
				c0.5,0,0.9-0.4,0.9-0.9C18.3,14,17.9,13.6,17.4,13.6L17.4,13.6z"/>
			<path id="Path_885" class="st0" d="M14.4,21.6c-4,0-7.2-3.2-7.2-7.2c0-4,3.2-7.2,7.2-7.2c4,0,7.2,3.2,7.2,7.2
				S18.4,21.6,14.4,21.6C14.4,21.6,14.4,21.6,14.4,21.6z M26.2,25l-4.9-4.9c3.1-3.8,2.6-9.4-1.3-12.6S10.7,5,7.5,8.8
				S5,18.3,8.8,21.4c3.3,2.7,8,2.7,11.3,0l4.9,4.9c0.4,0.3,0.9,0.3,1.2,0C26.6,25.9,26.6,25.3,26.2,25L26.2,25z"/>
		</g>
	</g>
</g>
</svg>
