<?xml version="1.0" encoding="utf-8"?>
<!-- Generator: Adobe Illustrator 24.0.3, SVG Export Plug-In . SVG Version: 6.00 Build 0)  -->
<svg version="1.1" id="Layer_1" xmlns="http://www.w3.org/2000/svg" xmlns:xlink="http://www.w3.org/1999/xlink" x="0px" y="0px"
	 viewBox="0 0 32 32" style="enable-background:new 0 0 32 32;" xml:space="preserve">
<style type="text/css">
	.st0{clip-path:url(#SVGID_2_);}
	.st1{clip-path:url(#SVGID_4_);fill:#FFFFFF;}
	.st2{clip-path:url(#SVGID_6_);}
	.st3{clip-path:url(#SVGID_8_);fill:#FFFFFF;}
</style>
<g>
	<g>
		<defs>
			<path id="SVGID_1_" d="M16.4,13.7H29c0.5,0,1,0.4,1,0.9c0,0,0,0.1,0,0.1v2c0,0.5-0.4,1-0.9,1c0,0-0.1,0-0.1,0
				c-0.2,0-0.2,0-0.2,0.2c-0.6,3.3-1,6.5-1.6,9.8c-0.2,1.1-1.1,1.9-2.2,1.8H7.7c-1.1,0-2-0.8-2.2-1.8c-0.6-3.1-1-6.3-1.6-9.4v-0.2
				c0-0.4-0.2-0.4-0.4-0.6c-0.4,0-0.8-0.4-0.8-0.8v-2.5c0-0.6,0.4-0.8,1-1h0.4C8.2,13.6,12.3,13.8,16.4,13.7z M21.5,22.5V19
				c-0.1-0.5-0.6-0.9-1.2-0.8c-0.6,0-0.8,0.6-0.8,1v6.9c0.2,0.5,0.7,0.8,1.2,0.8c0.5,0,1-0.4,1-0.9c0,0,0-0.1,0-0.1
				C21.6,24.8,21.5,23.6,21.5,22.5L21.5,22.5z M15.4,22.5v3.3c0,0.3,0,0.6,0.2,0.8c0.2,0.2,0.8,0.2,1.2,0.2c0.4-0.2,0.6-0.6,0.8-1
				v-7c-0.1-0.5-0.6-0.9-1.2-0.8c-0.6,0-0.8,0.4-0.8,1C15.4,20.1,15.4,21.3,15.4,22.5L15.4,22.5z M13.2,22.5v-3.3c0-0.5-0.3-1-0.9-1
				c0,0-0.1,0-0.1,0c-0.5,0-1,0.4-1,0.9c0,0,0,0.1,0,0.1v6.5c0,0.2,0.2,0.4,0.2,0.6c0.2,0.4,0.8,0.4,1.2,0.4c0.4-0.2,0.6-0.6,0.6-1
				V22.5z"/>
		</defs>
		<clipPath id="SVGID_2_">
			<use xlink:href="#SVGID_1_"  style="overflow:visible;"/>
		</clipPath>
		<g class="st0">
			<defs>
				<rect id="SVGID_3_" x="-1106.1" y="-528.9" width="3923.2" height="2789.8"/>
			</defs>
			<clipPath id="SVGID_4_">
				<use xlink:href="#SVGID_3_"  style="overflow:visible;"/>
			</clipPath>
			<path id="Path_1459" class="st1" d="M-10.9-0.4h54.5v43.6h-54.5V-0.4z"/>
		</g>
	</g>
	<g>
		<defs>
			<path id="SVGID_5_" d="M16.5,5.9l-0.6,0.7C14.4,8.1,13,9.4,11.7,11c-0.2,0.2-0.4,0.2-0.6,0.2H8.2c0,0,0-0.2,0.2-0.2
				c2.5-2.4,4.8-5.1,7.2-7.5c0.6-0.7,1.2-0.7,1.7,0c2.5,2.6,5,5,7.2,7.7h-2.9c-0.2,0-0.4,0-0.4-0.2c-1.7-1.5-3.1-3.3-4.5-4.8
				L16.5,5.9z"/>
		</defs>
		<clipPath id="SVGID_6_">
			<use xlink:href="#SVGID_5_"  style="overflow:visible;"/>
		</clipPath>
		<g class="st2">
			<defs>
				<rect id="SVGID_7_" x="-1106.1" y="-531" width="3923.2" height="2789.8"/>
			</defs>
			<clipPath id="SVGID_8_">
				<use xlink:href="#SVGID_7_"  style="overflow:visible;"/>
			</clipPath>
			<path id="Path_1462" class="st3" d="M-5.4-10.6h43.6v35.4H-5.4V-10.6z"/>
		</g>
	</g>
</g>
</svg>
